:SAMPLES-PER-SECOND 30
:FULLY-SPECIFIED
:DEGREES
342
root  -2.90503 40.9481 0.679961 -3.06346 -76.4968 1.93998
RightUpLeg  6.41766 -3.72149 -2.85607
RightLeg  -2.87808 -28.1826 2.44439
RightFoot  -0.693355 -0.453683 4.8137
RightToes  -3.13006e-008 1.75238e-005 3.56266e-009
Spine  2.76231 2.44592 2.21021
Spine1  -3.78388 2.61367 -0.870537
HEad  -1.86656 -8.21336 4.46555
LeftShoulder1  0.531169 -1.25686 -3.07305
LeftArm  -78.0143 -54.2109 -10.7628
LeftForeArm  107.511 -79.4915 -106.947
LeftHand  -1.00739 -1.86123 16.2481
RightShoulder  0.342121 -0.124423 1.95068
RightArm  -84.9184 44.7466 5.9437
RightForeArm  123.409 72.1974 142.81
RightHand  -2.07914 9.51565 -16.4357
LeftUpLeg  1.44747 1.15974 1.53737
LeftLeg  1.08469 0.527536 -1.35871
LeftFoot  -1.47286 0.328826 -3.70609
LeftToes  4.78685e-008 1.46778e-008 1.34523e-009
343
root  -2.93377 40.957 0.224959 -2.27478 -75.0044 1.43114
RightUpLeg  6.53982 -3.46209 -2.06663
RightLeg  -3.77945 -29.7868 3.21269
RightFoot  -0.740498 -0.412356 4.38706
RightToes  -3.13006e-008 1.75238e-005 3.56266e-009
Spine  2.76741 2.70315 3.14923
Spine1  -3.49113 3.42682 -4.518
HEad  -1.50857 -7.81 4.13548
LeftShoulder1  0.448482 -0.610722 -2.77664
LeftArm  -79.4143 -55.5025 -10.842
LeftForeArm  109.695 -79.4103 -108.71
LeftHand  -0.907333 -1.18918 16.0679
RightShoulder  0.418803 0.569403 2.09306
RightArm  -85.178 45.488 5.56532
RightForeArm  124.083 72.2982 142.687
RightHand  -1.99657 9.35377 -15.9751
LeftUpLeg  0.993951 0.9455 2.01611
LeftLeg  0.679663 -0.523412 -0.806801
LeftFoot  -1.03075 0.408568 -4.45989
LeftToes  4.78685e-008 1.46778e-008 1.34523e-009
344
root  -2.95028 40.9479 -0.242382 -2.10811 -73.894 1.22317
RightUpLeg  6.71359 -3.31965 -1.35605
RightLeg  -4.19067 -30.9994 3.76297
RightFoot  -1.09497 -0.368328 4.02034
RightToes  -3.13006e-008 1.75238e-005 3.56266e-009
Spine  2.68552 3.03031 3.91491
Spine1  -2.16908 4.37831 -7.97255
HEad  -1.3343 -7.39636 3.70988
LeftShoulder1  0.393972 -0.150358 -2.63754
LeftArm  -79.9992 -56.8068 -11.6898
LeftForeArm  114.105 -79.2492 -111.972
LeftHand  -1.10663 -1.72378 18.1815
RightShoulder  0.455604 0.725308 2.6681
RightArm  -84.553 46.6213 6.34095
RightForeArm  125.635 72.1355 143.282
RightHand  -2.03335 9.87405 -15.7234
LeftUpLeg  0.737501 0.834452 2.52763
LeftLeg  0.587412 -1.5049 -0.329653
LeftFoot  -0.726958 0.484194 -5.1666
LeftToes  4.78685e-008 1.46778e-008 1.34523e-009
345
root  -2.97293 40.927 -0.745464 -2.65695 -72.9251 1.30463
RightUpLeg  7.15782 -3.2662 -0.697764
RightLeg  -4.24123 -32.0512 4.12732
RightFoot  -1.61861 -0.298729 3.38068
RightToes  -3.13006e-008 1.75238e-005 3.56266e-009
Spine  3.57716 3.36611 3.79688
Spine1  -1.42659 5.25776 -10.4195
HEad  -1.42357 -7.91973 3.69465
LeftShoulder1  0.450436 -0.464963 -3.30632
LeftArm  -80.2019 -57.7466 -12.5303
LeftForeArm  119.666 -78.7201 -117.805
LeftHand  -1.05496 -1.54937 17.7358
RightShoulder  0.457072 0.68962 2.8089
RightArm  -82.6581 46.866 9.02241
RightForeArm  128.115 71.6722 144.606
RightHand  -2.10538 9.99818 -16.1666
LeftUpLeg  0.845159 0.974401 3.12461
LeftLeg  0.7108 -2.67525 -0.0359819
LeftFoot  -0.67078 0.570938 -6.06688
LeftToes  4.78685e-008 1.46778e-008 1.34523e-009
346
root  -2.9915 40.8951 -1.23073 -3.4152 -72.2058 1.37126
RightUpLeg  7.58008 -3.30104 -0.0987673
RightLeg  -3.77792 -32.7785 4.19596
RightFoot  -2.24157 -0.243925 2.87183
RightToes  -3.13006e-008 1.75238e-005 3.56266e-009
Spine  3.62999 3.61433 3.44763
Spine1  1.04595 6.19252 -12.3821
HEad  -2.28351 -8.54873 3.70851
LeftShoulder1  0.448675 -0.235535 -4.02026
LeftArm  -78.4779 -59.1443 -15.5242
LeftForeArm  128.563 -77.5848 -126.798
LeftHand  -1.0022 -1.49805 16.9773
RightShoulder  0.571554 1.43737 3.55175
RightArm  -80.9227 46.2857 11.4263
RightForeArm  129.671 70.483 147.075
RightHand  -2.05005 8.45448 -17.3862
LeftUpLeg  1.23701 1.05323 3.65319
LeftLeg  0.773453 -3.55809 0.333003
LeftFoot  -0.544849 0.638887 -6.72404
LeftToes  4.78685e-008 1.46778e-008 1.34523e-009
347
root  -3.01103 40.8513 -1.65832 -3.34816 -71.6433 0.556794
RightUpLeg  8.06524 -3.42123 0.5636
RightLeg  -3.36615 -33.1888 4.51197
RightFoot  -2.81411 -0.188252 2.26524
RightToes  -3.13006e-008 1.75238e-005 3.56266e-009
Spine  2.64409 3.7558 2.88936
Spine1  4.87631 7.04288 -13.345
HEad  -3.30983 -9.32416 3.32414
LeftShoulder1  0.556434 -0.785537 -5.0991
LeftArm  -76.6743 -59.0747 -17.9438
LeftForeArm  135.862 -76.3392 -133.633
LeftHand  -1.13878 -1.75467 18.6066
RightShoulder  0.765604 2.38226 5.18897
RightArm  -78.7626 46.1072 13.12
RightForeArm  132.906 69.5602 149.053
RightHand  -2.07893 9.11798 -16.8772
LeftUpLeg  1.44888 1.23026 4.34471
LeftLeg  1.31383 -4.40523 0.753656
LeftFoot  -0.655755 0.669995 -7.11737
LeftToes  4.78685e-008 1.46778e-008 1.34523e-009
348
root  -3.04751 40.8058 -2.00843 -3.11513 -71.5545 -0.0887056
RightUpLeg  8.17088 -3.55522 1.05971
RightLeg  -2.8366 -33.1523 4.74634
RightFoot  -3.42305 -0.142497 1.72369
RightToes  -3.13006e-008 1.75238e-005 3.56266e-009
Spine  1.68648 4.13414 1.98299
Spine1  7.68073 7.84008 -13.3592
HEad  -3.54079 -10.0257 1.67594
LeftShoulder1  0.752752 -1.68769 -6.84225
LeftArm  -72.7516 -58.2168 -21.7072
LeftForeArm  141.023 -74.913 -139.208
LeftHand  -1.09263 -1.43322 18.6656
RightShoulder  0.9828 3.44689 6.49914
RightArm  -75.8252 45.3166 14.8941
RightForeArm  135.453 69.1064 150.076
RightHand  -2.04105 9.85552 -15.7954
LeftUpLeg  1.46242 1.38868 4.93646
LeftLeg  1.80751 -4.77518 1.08449
LeftFoot  -0.779405 0.673406 -7.22897
LeftToes  4.78685e-008 1.46778e-008 1.34523e-009
349
root  -3.09081 40.7713 -2.26708 -2.38974 -71.872 -0.892841
RightUpLeg  8.05218 -3.52067 1.56078
RightLeg  -2.59854 -32.9356 4.98256
RightFoot  -3.77025 -0.121133 1.44485
RightToes  -3.13006e-008 1.75238e-005 3.56266e-009
Spine  0.927613 4.44577 1.38436
Spine1  9.46106 8.46733 -13.5015
HEad  -3.95954 -10.1509 0.994961
LeftShoulder1  0.943287 -2.45469 -8.35296
LeftArm  -69.5842 -56.83 -24.0595
LeftForeArm  142.405 -73.9784 -141.898
LeftHand  -1.07574 -1.48533 18.2532
RightShoulder  1.07672 3.60436 7.62175
RightArm  -72.595 45.0848 16.9889
RightForeArm  137.105 68.7973 150.74
RightHand  -2.1539 9.48975 -17.0367
LeftUpLeg  1.21113 1.68226 5.58401
LeftLeg  2.36262 -4.93018 1.17912
LeftFoot  -0.976975 0.662574 -7.23777
LeftToes  4.78685e-008 1.46778e-008 1.34523e-009
350
root  -3.14238 40.7548 -2.41839 -1.27955 -72.6165 -1.81081
RightUpLeg  7.92494 -3.27791 2.04365
RightLeg  -2.93932 -32.4394 5.32226
RightFoot  -3.73993 -0.104271 1.19732
RightToes  -3.13006e-008 1.75238e-005 3.56266e-009
Spine  0.277627 4.72137 1.0133
Spine1  10.3095 8.85184 -13.4163
HEad  -5.0069 -10.7588 1.09736
LeftShoulder1  1.06152 -2.74168 -9.65068
LeftArm  -67.4962 -56.0956 -25.3863
LeftForeArm  143.264 -73.9425 -142.129
LeftHand  -1.08517 -1.65136 17.9788
RightShoulder  1.11828 3.80548 7.7911
RightArm  -70.9775 44.392 17.5576
RightForeArm  137.366 68.7955 150.773
RightHand  -2.07611 8.9785 -17.0008
LeftUpLeg  0.922192 1.78197 6.04396
LeftLeg  2.72107 -4.35401 1.43786
LeftFoot  -1.213 0.686903 -7.66177
LeftToes  4.78685e-008 1.46778e-008 1.34523e-009
351
root  -3.20217 40.7528 -2.48504 -0.474544 -73.3297 -2.28037
RightUpLeg  7.70565 -3.03321 2.32398
RightLeg  -3.26292 -32.0032 5.49308
RightFoot  -3.68251 -0.0928274 1.01842
RightToes  -3.13006e-008 1.75238e-005 3.56266e-009
Spine  -0.0936474 4.79623 0.670769
Spine1  10.086 8.85912 -13.2861
HEad  -5.61705 -10.5449 0.949823
LeftShoulder1  1.09218 -2.9722 -9.48891
LeftArm  -67.6239 -55.5147 -24.6957
LeftForeArm  141.404 -74.543 -140.258
LeftHand  -1.03236 -1.72186 16.9775
RightShoulder  1.09631 3.71787 7.65896
RightArm  -70.7021 43.7537 16.5545
RightForeArm  137.714 69.4258 149.885
RightHand  -2.07759 9.84151 -16.0975
LeftUpLeg  0.715248 2.08249 6.40808
LeftLeg  2.77043 -4.01746 1.32129
LeftFoot  -1.24207 0.681062 -7.61721
LeftToes  4.78685e-008 1.46778e-008 1.34523e-009
352
root  -3.25067 40.7665 -2.43965 -0.519964 -74.3152 -1.86616
RightUpLeg  7.3773 -2.94259 2.15841
RightLeg  -3.20196 -31.1088 5.27514
RightFoot  -3.61859 -0.102342 1.14947
RightToes  -3.13006e-008 1.75238e-005 3.56266e-009
Spine  0.555632 4.46737 0.779537
Spine1  8.17474 8.36827 -13.7592
HEad  -5.65939 -9.97303 1.41209
LeftShoulder1  0.954971 -2.37389 -8.81381
LeftArm  -69.4223 -55.3562 -21.9355
LeftForeArm  137.327 -75.6512 -136.27
LeftHand  -1.07493 -2.11494 16.7525
RightShoulder  1.05236 3.62418 7.18361
RightArm  -71.4163 43.4229 14.8086
RightForeArm  136.585 70.1323 148.617
RightHand  -2.00347 10.4104 -15.0032
LeftUpLeg  0.865388 2.13389 6.31772
LeftLeg  2.32394 -3.04357 1.1801
LeftFoot  -1.08507 0.685961 -7.56451
LeftToes  4.78685e-008 1.46778e-008 1.34523e-009
353
root  -3.30165 40.7932 -2.30692 -0.63919 -74.9937 -1.45138
RightUpLeg  7.25193 -2.82481 1.94576
RightLeg  -3.35611 -30.5335 5.04758
RightFoot  -3.35562 -0.120951 1.40654
RightToes  -3.13006e-008 1.75238e-005 3.56266e-009
Spine  1.04528 4.05717 0.546629
Spine1  6.3505 7.51867 -13.0975
HEad  -5.5394 -8.98032 1.47386
LeftShoulder1  0.901818 -2.2515 -8.15436
LeftArm  -71.9742 -55.9835 -19.4733
LeftForeArm  133.305 -76.5643 -132.24
LeftHand  -0.965313 -1.44033 16.5173
RightShoulder  0.90479 2.97912 6.26975
RightArm  -72.8474 43.3473 12.6102
RightForeArm  134.496 70.8474 147.106
RightHand  -2.00678 9.80581 -15.595
LeftUpLeg  1.06444 2.16696 6.1481
LeftLeg  1.86657 -2.33384 0.959127
LeftFoot  -0.917373 0.6942 -7.54512
LeftToes  4.78685e-008 1.46778e-008 1.34523e-009
354
root  -3.34766 40.8331 -2.09955 -0.403976 -75.5259 -1.29575
RightUpLeg  7.17491 -2.86244 1.58128
RightLeg  -3.8323 -29.8703 5.1749
RightFoot  -2.93523 -0.139928 1.63152
RightToes  -3.13006e-008 1.75238e-005 3.56266e-009
Spine  1.22711 3.48443 1.04639
Spine1  4.67201 6.68004 -13.1471
HEad  -5.13579 -8.57175 2.16315
LeftShoulder1  0.779098 -1.83956 -6.93638
LeftArm  -73.7026 -57.3967 -18.0156
LeftForeArm  130.287 -77.326 -128.418
LeftHand  -1.08913 -1.95486 17.3328
RightShoulder  0.722652 2.01674 5.294
RightArm  -74.7136 42.9172 11.1755
RightForeArm  132.198 71.3123 145.923
RightHand  -1.9748 10.0364 -15.1366
LeftUpLeg  1.19775 2.35386 6.00656
LeftLeg  1.29191 -1.92698 0.573985
LeftFoot  -0.702369 0.673652 -7.18429
LeftToes  4.78685e-008 1.46778e-008 1.34523e-009
355
root  -3.40043 40.8696 -1.82568 -0.201616 -76.0374 -1.16485
RightUpLeg  7.0301 -2.70927 1.28785
RightLeg  -3.97336 -29.4713 4.8626
RightFoot  -2.54089 -0.174899 2.04534
RightToes  -3.13006e-008 1.75238e-005 3.56266e-009
Spine  1.26281 2.70461 1.30422
Spine1  3.17185 5.50937 -12.4674
HEad  -4.48691 -7.99727 2.57497
LeftShoulder1  0.653534 -1.35246 -5.66487
LeftArm  -76.4334 -57.9222 -15.3195
LeftForeArm  126.841 -77.8329 -125.116
LeftHand  -1.14262 -2.10953 17.804
RightShoulder  0.601992 1.408 4.36431
RightArm  -76.4859 42.4989 9.87015
RightForeArm  131.022 71.4348 145.515
RightHand  -2.02909 9.71964 -15.8495
LeftUpLeg  1.31347 2.41096 5.73581
LeftLeg  0.962129 -1.51212 0.268998
LeftFoot  -0.666534 0.646078 -6.8691
LeftToes  4.78685e-008 1.46778e-008 1.34523e-009
356
root  -3.45454 40.903 -1.51784 0.00535089 -76.2798 -1.08671
RightUpLeg  7.0206 -2.54516 0.997616
RightLeg  -4.28026 -29.4081 4.59701
RightFoot  -2.09034 -0.227894 2.63963
RightToes  -3.13006e-008 1.75238e-005 3.56266e-009
Spine  1.24934 1.92721 1.17285
Spine1  1.86418 4.25708 -11.055
HEad  -3.23115 -7.97182 3.16514
LeftShoulder1  0.554418 -0.930818 -4.60694
LeftArm  -77.8243 -58.7996 -14.2132
LeftForeArm  124.874 -78.1553 -122.879
LeftHand  -1.07994 -1.98465 17.1206
RightShoulder  0.550732 1.07 4.10394
RightArm  -78.2488 41.4367 8.09065
RightForeArm  129.831 71.2971 145.604
RightHand  -2.05966 9.03622 -16.7986
LeftUpLeg  1.38439 2.2793 5.30799
LeftLeg  0.72773 -1.08272 0.118935
LeftFoot  -0.709473 0.600961 -6.40867
LeftToes  4.78685e-008 1.46778e-008 1.34523e-009
